<?xml version="1.0" encoding="iso-8859-1"?>
<svg height="800px" width="800px" version="1.1" id="Layer_1" xmlns="http://www.w3.org/2000/svg" xmlns:xlink="http://www.w3.org/1999/xlink" 
	 viewBox="0 0 512 512" xml:space="preserve">
<path style="fill:#FFD41D;" d="M130.459,44.931l42.232,66.932c-25.2,14.607-46.234,35.628-60.829,60.839L44.919,130.47
	C65.857,95.325,95.325,65.868,130.459,44.931L130.459,44.931z"/>
<path style="fill:#FF1A1A;" d="M17.959,195.506l77.208,17.48c-3.66,13.711-5.626,28.142-5.626,43.013
	c0,14.883,1.965,29.303,5.626,43.014l-77.208,17.479c-4.908-19.355-7.51-39.617-7.51-60.493
	C10.449,235.126,13.051,214.862,17.959,195.506L17.959,195.506z"/>
<path style="fill:#D50707;" d="M172.69,400.136l-42.232,66.928c-35.134-20.934-64.601-50.388-85.54-85.534l66.942-42.233
	C126.456,364.511,147.489,385.544,172.69,400.136L172.69,400.136z"/>
<path style="fill:#1EB615;" d="M494.042,195.518c4.902,19.344,7.509,39.607,7.509,60.481c0,20.875-2.607,41.138-7.509,60.482
	l-77.214-17.468c3.655-13.712,5.621-28.132,5.621-43.014c0-14.872-1.965-29.302-5.621-43.013L494.042,195.518z"/>
<path style="fill:#92E03F;" d="M467.082,130.469l-66.942,42.232c-14.608-25.211-35.629-46.233-60.841-60.839l42.232-66.943
	C416.665,65.857,446.131,95.325,467.082,130.469L467.082,130.469z"/>
<path style="fill:#10BAFC;" d="M400.138,339.297l66.926,42.244c-20.934,35.135-50.4,64.6-85.534,85.541l-42.232-66.946
	C364.511,385.544,385.532,364.511,400.138,339.297L400.138,339.297z"/>
<path style="fill:#0084FF;" d="M299.014,416.828l17.479,77.213c-19.357,4.903-39.618,7.511-60.493,7.511s-41.149-2.608-60.505-7.512
	l17.479-77.213c13.725,3.668,28.143,5.634,43.027,5.634C270.871,422.461,285.291,420.495,299.014,416.828L299.014,416.828z"/>
<path style="fill:#FFAF00;" d="M316.493,17.958l-17.479,77.206c-13.724-3.659-28.143-5.625-43.014-5.625
	c-14.884,0-29.302,1.966-43.027,5.625l-17.479-77.206c19.357-4.908,39.632-7.509,60.506-7.509S297.137,13.05,316.493,17.958
	L316.493,17.958z"/>
<path d="M39.342,139.307l66.942,42.232c1.683,1.063,3.62,1.611,5.576,1.611c0.836,0,1.676-0.1,2.5-0.304
	c2.759-0.679,5.12-2.452,6.543-4.91c13.668-23.611,33.388-43.333,57.025-57.034c2.457-1.424,4.228-3.787,4.906-6.543
	c0.678-2.756,0.206-5.672-1.309-8.073l-42.231-66.932c-3.025-4.793-9.318-6.3-14.186-3.4
	c-36.561,21.789-67.395,52.622-89.167,89.167C33.041,129.989,34.55,136.283,39.342,139.307z M127.176,59.308l31.065,49.235
	c-19.702,13.092-36.63,30.021-49.702,49.707l-49.243-31.065C76.997,100.221,100.199,77.019,127.176,59.308z"/>
<path d="M104.108,304.419c1.469-2.431,1.886-5.355,1.154-8.1c-3.499-13.105-5.273-26.671-5.273-40.319
	c0-13.648,1.773-27.213,5.273-40.318c0.732-2.744,0.317-5.669-1.154-8.099c-1.469-2.431-3.865-4.159-6.636-4.787l-77.208-17.48
	c-5.531-1.254-11.042,2.131-12.435,7.623C2.634,213.432,0,234.649,0,256s2.634,42.569,7.829,63.062
	c1.197,4.722,5.442,7.883,10.121,7.883c0.763,0,1.54-0.085,2.315-0.26l77.208-17.479
	C100.243,308.578,102.639,306.85,104.108,304.419z M82.597,291.146l-56.794,12.857c-3.257-15.708-4.905-31.812-4.905-48.004
	s1.648-32.296,4.904-48.005l56.794,12.859C80.267,232.389,79.09,244.169,79.09,256S80.267,279.611,82.597,291.146z"/>
<path d="M177.926,391.095c-23.626-13.681-43.343-33.402-57.022-57.033c-1.422-2.459-3.785-4.231-6.543-4.911
	c-2.754-0.679-5.673-0.209-8.076,1.308l-66.942,42.233c-4.793,3.024-6.302,9.317-3.401,14.186
	c21.773,36.547,52.607,67.379,89.168,89.163c1.675,0.998,3.517,1.474,5.338,1.474c3.471,0,6.862-1.73,8.846-4.874l42.232-66.928
	c1.515-2.402,1.988-5.317,1.309-8.075C182.156,394.88,180.384,392.518,177.926,391.095z M127.176,452.686
	c-26.976-17.708-50.177-40.908-67.88-67.873l49.242-31.066c13.079,19.697,30.007,36.629,49.701,49.71L127.176,452.686z"/>
<path d="M504.171,192.952c-1.391-5.492-6.911-8.88-12.433-7.625l-77.214,17.468c-2.77,0.627-5.166,2.354-6.636,4.785
	c-1.47,2.43-1.887,5.354-1.155,8.098C410.228,228.79,412,242.357,412,256s-1.772,27.21-5.268,40.324
	c-0.73,2.744-0.315,5.669,1.156,8.098c1.469,2.43,3.865,4.158,6.636,4.785l77.214,17.468c0.775,0.176,1.55,0.26,2.313,0.26
	c4.68,0,8.924-3.162,10.121-7.884C509.366,298.547,512,277.335,512,256S509.366,213.453,504.171,192.952z M486.197,303.994
	l-56.802-12.85c2.328-11.54,3.504-23.317,3.504-35.144c0-11.826-1.177-23.605-3.504-35.143l56.802-12.85
	c3.257,15.712,4.905,31.813,4.905,47.993S489.454,288.281,486.197,303.994z"/>
<path d="M334.06,120.903c23.625,13.687,43.349,33.411,57.038,57.036c1.423,2.458,3.786,4.229,6.543,4.908
	c0.824,0.203,1.663,0.303,2.498,0.303c1.956,0,3.892-0.55,5.576-1.611l66.942-42.232c4.794-3.024,6.302-9.318,3.4-14.188
	c-21.794-36.56-52.633-67.397-89.179-89.177c-4.866-2.9-11.163-1.393-14.187,3.401l-42.232,66.943
	c-1.514,2.401-1.986,5.316-1.308,8.074S331.603,119.48,334.06,120.903z M384.813,59.297c26.968,17.708,50.172,40.912,67.889,67.89
	l-49.243,31.065c-13.084-19.694-30.019-36.627-49.712-49.711L384.813,59.297z"/>
<path d="M472.642,372.706l-66.926-42.244c-2.401-1.517-5.321-1.988-8.075-1.31c-2.759,0.679-5.12,2.451-6.544,4.909
	c-13.699,23.644-33.42,43.366-57.035,57.034c-2.459,1.423-4.231,3.786-4.91,6.543c-0.68,2.758-0.208,5.674,1.307,8.076
	l42.232,66.946c1.983,3.144,5.375,4.875,8.847,4.875c1.821,0,3.665-0.476,5.34-1.475c36.555-21.788,67.387-52.622,89.161-89.167
	C478.94,382.022,477.433,375.73,472.642,372.706z M384.813,452.702l-31.064-49.242c19.687-13.073,36.618-30.006,49.709-49.712
	l49.229,31.074C434.986,411.787,411.783,434.992,384.813,452.702z"/>
<path d="M309.205,414.519c-0.627-2.771-2.355-5.167-4.787-6.636c-2.434-1.47-5.358-1.886-8.102-1.151
	c-26.221,7.008-54.435,7.005-80.645,0c-2.743-0.734-5.669-0.319-8.102,1.151c-2.431,1.469-4.16,3.865-4.787,6.636l-17.479,77.213
	c-1.252,5.528,2.132,11.045,7.626,12.436C213.442,509.366,234.663,512,256,512c21.328,0,42.545-2.634,63.059-7.831
	c5.494-1.392,8.877-6.909,7.626-12.436L309.205,414.519z M207.984,486.194l12.857-56.795c23.074,4.663,47.225,4.667,70.306,0
	l12.857,56.795C272.55,492.715,239.43,492.712,207.984,486.194z"/>
<path d="M202.782,97.471c0.627,2.77,2.354,5.165,4.785,6.635c1.646,0.995,3.517,1.507,5.406,1.507c0.901,0,1.807-0.116,2.692-0.352
	c26.241-6.996,54.406-6.999,80.657,0c2.743,0.732,5.669,0.316,8.098-1.155c2.43-1.469,4.158-3.865,4.785-6.635l17.479-77.206
	c1.251-5.526-2.131-11.042-7.623-12.435C298.571,2.634,277.355,0,256,0c-21.362,0-42.584,2.634-63.073,7.829
	c-5.492,1.393-8.873,6.909-7.623,12.435L202.782,97.471z M304.004,25.802l-12.859,56.795c-23.095-4.66-47.216-4.658-70.304,0
	l-12.859-56.795C239.394,19.29,272.585,19.287,304.004,25.802z"/>
<path d="M337.717,184.814c2.674,0,5.348-1.021,7.388-3.061l16.172-16.171c4.08-4.08,4.08-10.697,0-14.777
	c-4.08-4.08-10.694-4.08-14.778,0l-16.172,16.171c-4.08,4.08-4.08,10.697,0,14.777C332.37,183.793,335.042,184.814,337.717,184.814z
	"/>
<path d="M310.595,186.711l-54.579,54.579l-90.482-90.483c-4.08-4.08-10.697-4.08-14.778,0c-4.08,4.08-4.08,10.697,0,14.777
	l94.811,94.812v119.763c0,5.771,4.679,10.449,10.449,10.449c5.77,0,10.449-4.678,10.449-10.449V260.395l58.907-58.907
	c4.08-4.08,4.08-10.697,0-14.778C321.29,182.629,314.676,182.629,310.595,186.711z"/>
</svg>